<?xml version="1.0" encoding="utf-8"?>
<!-- Generator: Adobe Illustrator 16.0.0, SVG Export Plug-In . SVG Version: 6.00 Build 0)  -->
<!DOCTYPE svg PUBLIC "-//W3C//DTD SVG 1.1//EN" "http://www.w3.org/Graphics/SVG/1.1/DTD/svg11.dtd">
<svg version="1.1" xmlns="http://www.w3.org/2000/svg" xmlns:xlink="http://www.w3.org/1999/xlink" x="0px" y="0px" width="192px"
	 height="192px" viewBox="0 0 192 192" enable-background="new 0 0 192 192" xml:space="preserve">
<g id="Layer_1">
</g>
<g id="Layer_13">
</g>
<g id="Layer_14">
</g>
<g id="Layer_15">
</g>
<g id="Layer_17">
</g>
<g id="Layer_16">
</g>
<g id="Layer_2">
</g>
<g id="Layer_6">
</g>
<g id="Layer_11">
</g>
<g id="Layer_12">
	<rect fill="#FFFFFF" width="192" height="192"/>
	<g>
		<rect x="9.436" y="55.924" fill="#35B39D" width="8.816" height="82.156"/>
		<rect x="21.057" y="45.506" fill="#35B39D" width="18.036" height="100.992"/>
		<rect x="173.75" y="55.924" fill="#35B39D" width="8.815" height="82.156"/>
		<rect x="152.909" y="45.506" fill="#35B39D" width="18.036" height="100.992"/>
		<path fill="none" stroke="#FFC137" stroke-width="6.4123" stroke-linecap="round" d="M46.305,76.363c0,0,27.651,0,50.096,20.639
			c28.279,26.008,51.301,21.842,51.301,21.842"/>
		<path fill="none" stroke="#FFC137" stroke-width="6.4123" stroke-linecap="round" d="M46.305,119.088c0,0,27.651,0,50.096-20.637
			c28.279-26.008,51.301-21.843,51.301-21.843"/>
		
			<line fill="none" stroke="#FFC137" stroke-width="6.4123" stroke-linecap="round" x1="75.961" y1="102.101" x2="75.961" y2="93.354"/>
		
			<line fill="none" stroke="#FFC137" stroke-width="6.4123" stroke-linecap="round" x1="62.736" y1="107.076" x2="62.736" y2="88.381"/>
		
			<line fill="none" stroke="#FFC137" stroke-width="6.4123" stroke-linecap="round" x1="48.311" y1="110.273" x2="48.311" y2="85.18"/>
		
			<line fill="none" stroke="#FFC137" stroke-width="6.4123" stroke-linecap="round" x1="116.439" y1="102.101" x2="116.439" y2="93.354"/>
		
			<line fill="none" stroke="#FFC137" stroke-width="6.4123" stroke-linecap="round" x1="129.664" y1="107.076" x2="129.664" y2="88.381"/>
		
			<line fill="none" stroke="#FFC137" stroke-width="6.4123" stroke-linecap="round" x1="144.093" y1="110.273" x2="144.093" y2="85.18"/>
	</g>
</g>
<g id="Layer_18">
</g>
<g id="Layer_7">
</g>
<g id="Layer_8">
</g>
<g id="Layer_3">
</g>
<g id="Layer_4">
</g>
<g id="Layer_5">
</g>
<g id="Layer_9">
</g>
<g id="Layer_10">
</g>
</svg>
